<svg width="200" height="200" viewBox="0 0 200 200" fill="none" xmlns="http://www.w3.org/2000/svg">
<rect x="1" y="1" width="198" height="198" rx="49" fill="#1B1B1B" stroke="#0A0A0A" stroke-width="2"/>
<g filter="url(#filter0_i_1_4)">
<path d="M25.8803 146V55.0909H63.7887C70.5951 55.0909 76.2917 56.0527 80.8786 57.9762C85.495 59.8997 88.9574 62.5927 91.2656 66.055C93.6035 69.5174 94.7724 73.5272 94.7724 78.0845C94.7724 81.5469 94.0474 84.6393 92.5973 87.3619C91.1473 90.0548 89.1497 92.2891 86.6048 94.0646C84.0598 95.8402 81.1153 97.0831 77.7713 97.7933V98.6811C81.4408 98.8587 84.8292 99.85 87.9364 101.655C91.0733 103.46 93.5887 105.976 95.4826 109.201C97.3765 112.397 98.3235 116.185 98.3235 120.565C98.3235 125.448 97.0806 129.813 94.5948 133.66C92.109 137.477 88.5135 140.496 83.8082 142.715C79.103 144.905 73.3916 146 66.674 146H25.8803ZM47.853 128.289H61.4361C66.2005 128.289 69.7073 127.386 71.9563 125.581C74.235 123.776 75.3743 121.26 75.3743 118.035C75.3743 115.697 74.8268 113.685 73.7319 111.998C72.637 110.281 71.0833 108.965 69.071 108.047C67.0587 107.1 64.6469 106.627 61.8356 106.627H47.853V128.289ZM47.853 92.4666H60.0156C62.4126 92.4666 64.5433 92.0671 66.4077 91.2681C68.272 90.4691 69.7221 89.315 70.7578 87.8058C71.8232 86.2965 72.3558 84.4766 72.3558 82.3459C72.3558 79.2978 71.2757 76.9008 69.1154 75.1548C66.9551 73.4089 64.0402 72.5359 60.3707 72.5359H47.853V92.4666ZM158.027 82.3459C157.731 79.0907 156.414 76.5605 154.076 74.7553C151.768 72.9206 148.469 72.0032 144.178 72.0032C141.337 72.0032 138.969 72.3731 137.075 73.1129C135.181 73.8527 133.761 74.8737 132.814 76.1758C131.867 77.4483 131.379 78.9131 131.349 80.5703C131.29 81.9316 131.556 83.1301 132.148 84.1658C132.77 85.2016 133.657 86.119 134.811 86.918C135.995 87.6874 137.416 88.368 139.073 88.9599C140.73 89.5517 142.594 90.0696 144.666 90.5135L152.478 92.2891C156.976 93.2656 160.942 94.5677 164.375 96.1953C167.837 97.8229 170.737 99.7612 173.075 102.01C175.442 104.259 177.233 106.849 178.446 109.778C179.659 112.708 180.281 115.993 180.31 119.633C180.281 125.374 178.831 130.301 175.96 134.414C173.09 138.528 168.962 141.679 163.576 143.869C158.219 146.059 151.753 147.154 144.178 147.154C136.572 147.154 129.943 146.015 124.291 143.736C118.639 141.458 114.244 137.995 111.108 133.349C107.971 128.703 106.358 122.829 106.269 115.727H127.31C127.487 118.656 128.271 121.098 129.662 123.051C131.053 125.004 132.962 126.484 135.388 127.49C137.845 128.496 140.686 128.999 143.911 128.999C146.871 128.999 149.386 128.599 151.457 127.8C153.558 127.001 155.171 125.892 156.296 124.471C157.42 123.051 157.997 121.423 158.027 119.588C157.997 117.872 157.465 116.407 156.429 115.194C155.393 113.951 153.795 112.886 151.635 111.998C149.504 111.08 146.782 110.237 143.467 109.468L133.968 107.248C126.096 105.443 119.897 102.528 115.369 98.5036C110.841 94.4493 108.592 88.9747 108.622 82.0795C108.592 76.4569 110.101 71.5297 113.15 67.2979C116.198 63.0662 120.415 59.7666 125.8 57.3991C131.186 55.0317 137.327 53.848 144.222 53.848C151.265 53.848 157.376 55.0465 162.555 57.4435C167.763 59.811 171.802 63.1402 174.673 67.4311C177.543 71.7221 179.008 76.6937 179.067 82.3459H158.027Z" fill="#ECECEC"/>
</g>
<defs>
<filter id="filter0_i_1_4" x="25.8804" y="53.848" width="154.43" height="97.3061" filterUnits="userSpaceOnUse" color-interpolation-filters="sRGB">
<feFlood flood-opacity="0" result="BackgroundImageFix"/>
<feBlend mode="normal" in="SourceGraphic" in2="BackgroundImageFix" result="shape"/>
<feColorMatrix in="SourceAlpha" type="matrix" values="0 0 0 0 0 0 0 0 0 0 0 0 0 0 0 0 0 0 127 0" result="hardAlpha"/>
<feOffset dy="4"/>
<feGaussianBlur stdDeviation="2"/>
<feComposite in2="hardAlpha" operator="arithmetic" k2="-1" k3="1"/>
<feColorMatrix type="matrix" values="0 0 0 0 0 0 0 0 0 0 0 0 0 0 0 0 0 0 0.25 0"/>
<feBlend mode="normal" in2="shape" result="effect1_innerShadow_1_4"/>
</filter>
</defs>
</svg>
